<svg version="1.1" xmlns="http://www.w3.org/2000/svg" xmlns:xlink="http://www.w3.org/1999/xlink" width="109.97000122070312" height="41.67000198364258"><defs></defs><g transform="translate(-59.53327941894531,22.900001525878906)"><rect fill="rgb(255,255,255)" stroke="none" x="0" y="0" width="109.97000122070312" height="41.67000198364258" fill-opacity="0" transform="translate(59.53327941894531,-22.900001525878906)"></rect><g transform="translate(55.86328125,21) rotate(0,0,0) translate(-55.86328125,-21) matrix(1,0,0,1,55.86328125,21)"><path fill="rgb(0,0,0)" fill-opacity="1" d="M34.42-37.27L34.42-37.27Q34.42-36.17 33.96-34.82Q33.50-33.47 32.77-32.05Q32.03-30.64 31.05-29.21Q30.08-27.78 29.07-26.51L29.07-26.51Q29.68-25.90 30.18-25.40Q30.67-24.89 30.88-24.73L30.88-24.73Q30.55-24.17 29.98-23.08Q29.40-21.99 28.76-20.61Q28.11-19.22 27.45-17.68Q26.78-16.13 26.24-14.64Q25.70-13.15 25.36-11.83Q25.02-10.50 25.02-9.61L25.02-9.61Q25.02-8.44 25.34-7.43Q25.65-6.43 26.27-5.66Q26.89-4.90 27.82-4.40Q28.75-3.89 29.96-3.75L29.96-3.75L28.82-2.23Q28.54-2.23 27.95-2.36Q27.36-2.49 26.64-2.80Q25.91-3.12 25.11-3.66Q24.32-4.20 23.61-5.03Q22.91-5.86 22.37-7.02Q21.83-8.18 21.62-9.75L21.62-9.75Q20.50-8.58 19.20-7.43Q17.89-6.29 16.51-5.37Q15.13-4.46 13.71-3.89Q12.29-3.33 10.96-3.33L10.96-3.33Q10.18-3.33 9.38-3.75Q8.57-4.18 7.78-4.87Q7.00-5.56 6.28-6.47Q5.57-7.39 5.02-8.36Q4.46-9.33 4.10-10.29Q3.74-11.25 3.67-12.07L3.67-12.07Q3.67-12.38 3.68-12.81Q3.69-13.25 3.71-13.71Q3.74-14.18 3.77-14.63Q3.81-15.07 3.86-15.43L3.86-15.43Q4.21-17.51 4.98-19.83Q5.75-22.15 6.87-24.54Q7.98-26.93 9.39-29.30Q10.79-31.67 12.43-33.82Q14.07-35.98 15.90-37.82Q17.73-39.66 19.66-41.01Q21.60-42.36 23.60-43.13Q25.61-43.90 27.60-43.90L27.60-43.90Q28.28-43.90 29.05-43.55Q29.82-43.20 30.59-42.64Q31.35-42.07 32.04-41.36Q32.73-40.64 33.26-39.91Q33.79-39.17 34.10-38.48Q34.42-37.79 34.42-37.27ZM10.00-7.41L10.00-7.41Q10.44-7.41 11.30-7.93Q12.15-8.44 13.29-9.40Q14.43-10.36 15.76-11.77Q17.10-13.18 18.46-14.95Q19.82-16.71 21.14-18.84Q22.46-20.96 23.61-23.37L23.61-23.37L20.85-26.14Q21.25-26.56 22.09-27.26Q22.93-27.96 23.96-28.93Q25.00-29.89 26.09-31.07Q27.18-32.25 28.08-33.63Q28.98-35.00 29.57-36.51Q30.15-38.02 30.15-39.66L30.15-39.66Q30.15-40.57 29.79-41.05Q29.43-41.54 29.14-41.54L29.14-41.54Q27.76-41.54 26.13-40.54Q24.50-39.54 22.79-37.84Q21.08-36.14 19.36-33.87Q17.64-31.60 16.05-29.02Q14.47-26.44 13.10-23.72Q11.73-21.00 10.72-18.40Q9.71-15.80 9.13-13.46Q8.54-11.11 8.54-9.33L8.54-9.33Q8.54-7.41 10.00-7.41ZM43.30-9.75L43.30-9.75Q42.32-9.75 41.59-10.08L41.59-10.08Q40.82-9.26 39.97-8.55Q39.13-7.83 38.31-7.28Q37.49-6.73 36.69-6.40Q35.89-6.07 35.19-6.03L35.19-6.03Q34.84-6.03 34.17-6.33Q33.50-6.64 32.86-7.12Q32.21-7.60 31.73-8.22Q31.25-8.84 31.25-9.47L31.25-9.47Q31.25-11.02 31.56-12.58Q31.86-14.14 32.32-15.66Q32.78-17.18 33.33-18.65Q33.88-20.11 34.37-21.47L34.37-21.47Q35.57-20.93 36.70-20.28Q37.84-19.62 38.82-18.73L38.82-18.73Q38.47-18.03 38.12-17.11Q37.77-16.20 37.44-15.21Q37.11-14.23 36.83-13.25Q36.55-12.26 36.34-11.42Q36.13-10.57 36.01-9.93Q35.89-9.29 35.89-9.00L35.89-9.00Q35.89-8.82 35.98-8.66Q36.06-8.51 36.25-8.51L36.25-8.51Q36.62-8.51 37.08-8.75Q37.54-8.98 38.05-9.37Q38.57-9.75 39.09-10.28Q39.62-10.81 40.11-11.39L40.11-11.39Q39.69-12.12 39.69-12.85L39.69-12.85Q39.69-13.34 39.84-14.03Q40.00-14.72 40.25-15.47Q40.51-16.22 40.83-16.98Q41.14-17.75 41.48-18.40Q41.82-19.06 42.14-19.55Q42.46-20.04 42.71-20.28L42.71-20.28Q43.25-20.07 43.84-19.70Q44.43-19.34 44.92-18.93Q45.41-18.52 45.73-18.13Q46.04-17.75 46.09-17.49L46.09-17.49Q46.09-17.00 45.86-16.34Q45.62-15.68 45.21-14.92Q44.80-14.16 44.23-13.33Q43.65-12.50 42.97-11.65L42.97-11.65Q43.11-11.61 43.27-11.57Q43.42-11.54 43.63-11.54L43.63-11.54Q44.57-11.54 45.29-11.72Q46.02-11.91 46.68-12.27Q47.33-12.64 47.96-13.18Q48.60-13.71 49.35-14.42L49.35-14.42Q49.56-14.21 49.90-13.87Q50.24-13.53 50.45-13.27L50.45-13.27Q49.46-12.29 48.59-11.62Q47.71-10.95 46.85-10.54Q46.00-10.13 45.13-9.94Q44.26-9.75 43.30-9.75ZM50.59-6.03L50.59-6.03Q50.24-6.03 49.70-6.27Q49.16-6.52 48.67-6.88Q48.18-7.25 47.82-7.69Q47.47-8.14 47.47-8.56L47.47-8.56Q47.71-9.59 48.11-10.93Q48.50-12.26 48.96-13.64Q49.42-15.03 49.92-16.35Q50.43-17.68 50.84-18.71Q51.25-19.74 51.55-20.37Q51.86-21.00 51.95-21.00L51.95-21.00Q52.09-21.00 52.65-20.70Q53.21-20.39 53.84-19.96Q54.46-19.53 54.95-19.05Q55.44-18.57 55.44-18.21L55.44-18.21Q55.44-18.14 55.42-18.04Q55.39-17.93 55.35-17.77L55.35-17.77Q55.16-17.18 54.87-16.39Q54.57-15.59 54.25-14.73Q53.92-13.88 53.59-13.02Q53.26-12.17 53.00-11.42Q52.75-10.67 52.58-10.11Q52.42-9.54 52.42-9.29L52.42-9.29Q52.42-9.14 52.56-9.14L52.56-9.14Q52.82-9.14 53.33-9.45Q53.85-9.75 54.52-10.25Q55.18-10.74 55.91-11.32Q56.64-11.91 57.30-12.48Q57.97-13.06 58.51-13.53Q59.05-14.00 59.33-14.23L59.33-14.23Q59.54-14.02 59.84-13.69Q60.13-13.36 60.39-13.08L60.39-13.08Q59.87-12.57 59.10-11.83Q58.32-11.09 57.42-10.32Q56.52-9.54 55.55-8.77Q54.57-8.00 53.66-7.39Q52.75-6.78 51.95-6.40Q51.15-6.03 50.59-6.03ZM59.87-28.15L59.87-28.15Q59.85-28.06 59.70-27.70Q59.54-27.33 59.33-26.85Q59.12-26.37 58.85-25.84Q58.58-25.32 58.32-24.87Q58.07-24.43 57.83-24.13Q57.60-23.84 57.46-23.84L57.46-23.84Q57.04-23.86 56.44-24.10Q55.84-24.33 55.29-24.63Q54.74-24.92 54.35-25.20Q53.96-25.48 53.96-25.60L53.96-25.60Q53.96-26.09 54.25-26.88Q54.53-27.66 54.90-28.40Q55.28-29.14 55.66-29.68Q56.05-30.21 56.26-30.21L56.26-30.21Q56.68-30.21 57.29-29.95Q57.90-29.68 58.48-29.32Q59.05-28.97 59.46-28.63Q59.87-28.29 59.87-28.15ZM69.71-17.02L69.71-17.02Q69.41-16.11 68.95-14.93Q68.50-13.76 68.07-12.64Q67.65-11.51 67.36-10.60Q67.07-9.68 67.07-9.29L67.07-9.29Q67.07-9.14 67.21-9.14L67.21-9.14Q67.46-9.14 67.98-9.45Q68.50-9.75 69.16-10.25Q69.83-10.74 70.56-11.32Q71.29-11.91 71.95-12.48Q72.62-13.06 73.16-13.53Q73.70-14.00 73.98-14.23L73.98-14.23Q74.19-14.02 74.48-13.69Q74.78-13.36 75.04-13.08L75.04-13.08Q74.52-12.57 73.75-11.83Q72.97-11.09 72.07-10.32Q71.17-9.54 70.20-8.77Q69.22-8.00 68.30-7.39Q67.37-6.78 66.57-6.40Q65.78-6.03 65.24-6.03L65.24-6.03Q64.89-6.03 64.35-6.27Q63.81-6.52 63.32-6.88Q62.82-7.25 62.47-7.69Q62.12-8.14 62.12-8.56L62.12-8.56Q62.47-10.13 62.82-11.30Q63.18-12.47 63.48-13.30Q63.79-14.14 64.02-14.65Q64.25-15.17 64.37-15.43L64.37-15.43Q64.09-15.54 63.83-15.68Q63.57-15.82 63.32-15.96L63.32-15.96Q62.94-15.57 62.48-15.12Q62.03-14.68 61.56-14.23Q61.09-13.79 60.62-13.36Q60.15-12.94 59.78-12.59L59.78-12.59L58.65-13.74Q59.26-14.32 60.12-15.16Q60.97-15.99 61.79-16.83L61.79-16.83Q61.21-17.18 60.74-17.50Q60.27-17.82 59.94-18.07L59.94-18.07Q59.54-18.36 59.24-18.59L59.24-18.59Q59.10-18.66 59.10-18.89L59.10-18.89Q59.10-19.15 59.30-19.63Q59.50-20.11 59.80-20.66Q60.11-21.21 60.46-21.79Q60.81-22.36 61.14-22.83Q61.46-23.30 61.71-23.59Q61.96-23.89 62.03-23.89L62.03-23.89Q62.07-23.89 62.34-23.77Q62.61-23.65 62.92-23.50Q63.22-23.35 63.48-23.16Q63.74-22.97 63.81-22.83L63.81-22.83Q63.83-22.71 63.86-22.34Q63.88-21.96 63.90-21.43L63.90-21.43Q64.82-20.96 65.78-20.36Q66.74-19.76 67.54-19.22L67.54-19.22Q68.47-18.61 69.32-17.98L69.32-17.98Q69.62-17.79 69.70-17.51Q69.79-17.23 69.71-17.02ZM87.13-9.38L87.13-9.38Q87.13-9.24 87.27-9.24L87.27-9.24Q87.48-9.24 87.97-9.54Q88.46-9.85 89.10-10.32Q89.73-10.79 90.45-11.37Q91.16-11.96 91.82-12.52Q92.47-13.08 93-13.55Q93.53-14.02 93.81-14.28L93.81-14.28Q94.02-14.07 94.34-13.71Q94.65-13.36 94.91-13.08L94.91-13.08Q94.35-12.57 93.56-11.83Q92.78-11.09 91.88-10.29Q90.97-9.50 90.01-8.71Q89.05-7.93 88.14-7.32Q87.22-6.71 86.40-6.32Q85.58-5.93 84.97-5.93L84.97-5.93Q84.55-5.93 84.05-6.10Q83.54-6.26 83.12-6.55Q82.70-6.85 82.42-7.25Q82.14-7.64 82.14-8.14L82.14-8.14Q82.14-8.32 82.13-8.59Q82.11-8.86 82.16-9.30Q82.21-9.73 82.35-10.35Q82.49-10.97 82.77-11.89L82.77-11.89Q82.00-11.07 80.95-10.18Q79.91-9.29 78.76-8.49Q77.61-7.69 76.45-7.05Q75.29-6.40 74.31-6.07L74.31-6.07Q74.19-6.03 74.12-6.03Q74.05-6.03 73.98-6.03L73.98-6.03Q73.75-6.03 73.36-6.26Q72.97-6.50 72.60-6.88Q72.22-7.27 71.95-7.76Q71.68-8.25 71.68-8.75L71.68-8.75Q71.68-8.89 71.82-9.68Q71.96-10.48 72.49-11.71Q73.02-12.94 74.05-14.48Q75.08-16.01 76.86-17.63L76.86-17.63Q77.78-18.45 78.83-19.18L78.83-19.18Q79.72-19.79 80.87-20.42Q82.02-21.05 83.29-21.43L83.29-21.43Q83.33-21.43 83.37-21.45Q83.40-21.47 83.47-21.43L83.47-21.43Q83.75-21.33 84.14-21.13Q84.53-20.93 84.91-20.71Q85.30-20.49 85.59-20.27Q85.89-20.04 85.98-19.90L85.98-19.90Q86.00-19.86 85.98-19.83L85.98-19.83L85.93-19.79Q84.88-19.22 83.94-18.53Q83.00-17.84 82.28-17.23L82.28-17.23Q81.43-16.50 80.71-15.80L80.71-15.80Q79.00-14.11 78.34-12.88Q77.68-11.65 77.68-11.11L77.68-11.11Q77.68-10.71 78.01-10.71L78.01-10.71Q78.34-10.71 78.84-10.98Q79.35-11.25 79.98-11.71Q80.61-12.17 81.38-12.79Q82.14-13.41 82.96-14.09L82.96-14.09Q83.68-14.68 84.36-15.36L84.36-15.36Q84.95-15.92 85.58-16.64Q86.21-17.37 86.66-18.12L86.66-18.12Q86.66-18.14 86.68-18.17L86.68-18.17Q86.71-18.19 86.75-18.17L86.75-18.17Q87.01-17.98 87.34-17.55Q87.67-17.11 87.95-16.60Q88.23-16.08 88.43-15.60Q88.63-15.12 88.63-14.86L88.63-14.86Q88.09-13.76 87.80-12.86Q87.50-11.96 87.35-11.28Q87.20-10.60 87.16-10.12Q87.13-9.64 87.13-9.38ZM98.71-8.96L98.71-8.96Q99.08-8.96 99.73-9.29Q100.37-9.61 101.14-10.12Q101.92-10.62 102.76-11.23Q103.61-11.84 104.34-12.43Q105.08-13.01 105.67-13.50Q106.25-14.00 106.54-14.23L106.54-14.23Q106.75-14.02 107.04-13.69Q107.33-13.36 107.59-13.08L107.59-13.08Q107.07-12.57 106.30-11.83Q105.53-11.09 104.63-10.32Q103.72-9.54 102.75-8.77Q101.78-8.00 100.85-7.39Q99.93-6.78 99.13-6.40Q98.33-6.03 97.79-6.03L97.79-6.03Q97.07-6.03 96.26-6.54Q95.45-7.06 94.75-7.75Q94.04-8.44 93.55-9.14Q93.06-9.85 92.99-10.20L92.99-10.20Q92.94-10.34 92.94-10.54Q92.94-10.74 92.94-10.97L92.94-10.97Q92.94-12.14 93.23-13.94Q93.53-15.73 94.02-17.73Q94.51-19.74 95.16-21.72Q95.80-23.70 96.50-25.22L96.50-25.22Q97.93-28.34 99.45-30.75Q100.96-33.17 102.41-34.96Q103.86-36.75 105.20-37.97Q106.54-39.19 107.60-39.94Q108.67-40.69 109.41-41.02Q110.14-41.35 110.43-41.35L110.43-41.35Q110.87-41.18 111.33-40.87Q111.79-40.55 112.18-40.20Q112.58-39.85 112.89-39.51Q113.19-39.17 113.33-39.00L113.33-39.00Q113.52-38.82 113.58-38.64Q113.64-38.46 113.64-38.18L113.64-38.18Q113.64-37.62 113.36-36.64Q113.07-35.65 112.30-34.14Q111.53-32.63 110.16-30.52Q108.79-28.41 106.58-25.60L106.58-25.60Q105.55-24.29 104.40-22.93L104.40-22.93Q103.42-21.75 102.13-20.37Q100.84-18.99 99.48-17.72L99.48-17.72Q98.80-15.14 98.53-13.18Q98.26-11.21 98.26-10.11L98.26-10.11Q98.26-9.38 98.38-9.17Q98.50-8.96 98.71-8.96ZM102.46-26.14L102.46-26.14Q102.06-25.25 101.72-24.40Q101.38-23.56 101.07-22.74L101.07-22.74Q101.80-23.56 102.40-24.31Q103.00-25.06 103.42-25.60L103.42-25.60Q103.91-26.23 104.31-26.79L104.31-26.79Q105.95-29.09 107.14-31.01Q108.34-32.93 109.11-34.40Q109.89-35.86 110.25-36.84Q110.61-37.81 110.61-38.23L110.61-38.23Q110.61-38.35 110.60-38.41Q110.59-38.46 110.47-38.46L110.47-38.46Q110.26-38.46 109.51-37.77Q108.76-37.08 107.67-35.58Q106.58-34.08 105.23-31.75Q103.89-29.42 102.46-26.14Z"></path></g></g></svg>